<mxfile host="app.diagrams.net" modified="2023-04-16T02:45:14.827Z" agent="Mozilla/5.0 (Windows NT 10.0; Win64; x64) AppleWebKit/537.36 (KHTML, like Gecko) Chrome/112.0.0.0 Safari/537.36" etag="nnswNMEp3WTYA_yj2RM4" version="21.1.8" type="github">
  <diagram name="Page-1" id="efa7a0a1-bf9b-a30e-e6df-94a7791c09e9">
    <mxGraphModel dx="1240" dy="2309" grid="0" gridSize="10" guides="1" tooltips="1" connect="1" arrows="1" fold="1" page="0" pageScale="1" pageWidth="826" pageHeight="1169" background="none" math="0" shadow="0">
      <root>
        <mxCell id="0" />
        <mxCell id="1" parent="0" />
        <mxCell id="08USlgKBRLxsxkHtnpeR-115" value="&lt;font color=&quot;#000000&quot;&gt;Handler&lt;br&gt;CreateUserInOnlineCommand&lt;br&gt;&lt;/font&gt;" style="rounded=0;whiteSpace=wrap;html=1;fillColor=#dae8fc;strokeColor=#6c8ebf;" parent="1" vertex="1">
          <mxGeometry x="-5" y="-908" width="200" height="60" as="geometry" />
        </mxCell>
        <mxCell id="MLKeYVqBa8RRxU8ndWpH-114" value="&lt;br&gt;WebAgent&lt;br&gt;Security.User" style="strokeWidth=2;html=1;shape=mxgraph.flowchart.database;whiteSpace=wrap;fillColor=#ffe6cc;strokeColor=#d79b00;" parent="1" vertex="1">
          <mxGeometry x="12" y="-1182" width="123" height="92" as="geometry" />
        </mxCell>
        <mxCell id="MLKeYVqBa8RRxU8ndWpH-116" value="&lt;font color=&quot;#000000&quot;&gt;Identity Server API&lt;br&gt;POST&lt;br&gt;api / user&lt;/font&gt;" style="rounded=0;whiteSpace=wrap;html=1;fillColor=#dae8fc;strokeColor=#6c8ebf;" parent="1" vertex="1">
          <mxGeometry x="263" y="-908" width="200" height="60" as="geometry" />
        </mxCell>
        <mxCell id="MLKeYVqBa8RRxU8ndWpH-118" value="" style="endArrow=classic;html=1;rounded=0;entryX=0;entryY=0.5;entryDx=0;entryDy=0;exitX=1;exitY=0.5;exitDx=0;exitDy=0;" parent="1" source="08USlgKBRLxsxkHtnpeR-115" target="MLKeYVqBa8RRxU8ndWpH-116" edge="1">
          <mxGeometry width="50" height="50" relative="1" as="geometry">
            <mxPoint x="212" y="-817" as="sourcePoint" />
            <mxPoint x="307" y="-817" as="targetPoint" />
          </mxGeometry>
        </mxCell>
        <mxCell id="MLKeYVqBa8RRxU8ndWpH-119" value="&lt;br&gt;Online&lt;br&gt;Users" style="strokeWidth=2;html=1;shape=mxgraph.flowchart.database;whiteSpace=wrap;fillColor=#ffe6cc;strokeColor=#d79b00;" parent="1" vertex="1">
          <mxGeometry x="529" y="-924" width="123" height="92" as="geometry" />
        </mxCell>
        <mxCell id="MLKeYVqBa8RRxU8ndWpH-120" value="&lt;br&gt;&lt;br&gt;WireDataEntry&lt;br&gt;SP&lt;br&gt;WebApi_UserRegistration_WithDataValidResult_WhiteLabel_v3" style="strokeWidth=2;html=1;shape=mxgraph.flowchart.database;whiteSpace=wrap;fillColor=#d5e8d4;strokeColor=#82b366;" parent="1" vertex="1">
          <mxGeometry x="-1" y="-357" width="397" height="92" as="geometry" />
        </mxCell>
        <mxCell id="MLKeYVqBa8RRxU8ndWpH-121" value="&lt;br&gt;WireSecurity&lt;br&gt;WebApi_TrustedDevices" style="strokeWidth=2;html=1;shape=mxgraph.flowchart.database;whiteSpace=wrap;fillColor=#ffe6cc;strokeColor=#d79b00;" parent="1" vertex="1">
          <mxGeometry x="-86" y="-204" width="158" height="92" as="geometry" />
        </mxCell>
        <mxCell id="MLKeYVqBa8RRxU8ndWpH-122" value="&lt;br&gt;WebAgent&lt;br&gt;Security.UserRoles" style="strokeWidth=2;html=1;shape=mxgraph.flowchart.database;whiteSpace=wrap;fillColor=#ffe6cc;strokeColor=#d79b00;" parent="1" vertex="1">
          <mxGeometry x="-68.5" y="-79" width="123" height="92" as="geometry" />
        </mxCell>
        <mxCell id="MLKeYVqBa8RRxU8ndWpH-123" value="" style="endArrow=classic;html=1;rounded=0;entryX=0;entryY=0.5;entryDx=0;entryDy=0;entryPerimeter=0;exitX=1;exitY=0.5;exitDx=0;exitDy=0;" parent="1" source="MLKeYVqBa8RRxU8ndWpH-116" target="MLKeYVqBa8RRxU8ndWpH-119" edge="1">
          <mxGeometry width="50" height="50" relative="1" as="geometry">
            <mxPoint x="233" y="-1007" as="sourcePoint" />
            <mxPoint x="328" y="-1007" as="targetPoint" />
          </mxGeometry>
        </mxCell>
        <mxCell id="MLKeYVqBa8RRxU8ndWpH-124" value="" style="endArrow=classic;html=1;rounded=0;entryX=0;entryY=0.5;entryDx=0;entryDy=0;entryPerimeter=0;" parent="1" target="MLKeYVqBa8RRxU8ndWpH-114" edge="1">
          <mxGeometry width="50" height="50" relative="1" as="geometry">
            <mxPoint x="-215" y="-1136" as="sourcePoint" />
            <mxPoint x="-50" y="-1139" as="targetPoint" />
          </mxGeometry>
        </mxCell>
        <mxCell id="MUhubDVM9BwMi47_hHYt-114" value="1" style="edgeLabel;html=1;align=center;verticalAlign=middle;resizable=0;points=[];" vertex="1" connectable="0" parent="MLKeYVqBa8RRxU8ndWpH-124">
          <mxGeometry x="0.2327" relative="1" as="geometry">
            <mxPoint as="offset" />
          </mxGeometry>
        </mxCell>
        <mxCell id="MLKeYVqBa8RRxU8ndWpH-125" value="" style="endArrow=classic;html=1;rounded=0;entryX=0;entryY=0.5;entryDx=0;entryDy=0;" parent="1" target="08USlgKBRLxsxkHtnpeR-115" edge="1">
          <mxGeometry width="50" height="50" relative="1" as="geometry">
            <mxPoint x="-218" y="-878" as="sourcePoint" />
            <mxPoint x="-100" y="-888" as="targetPoint" />
          </mxGeometry>
        </mxCell>
        <mxCell id="MUhubDVM9BwMi47_hHYt-115" value="2" style="edgeLabel;html=1;align=center;verticalAlign=middle;resizable=0;points=[];" vertex="1" connectable="0" parent="MLKeYVqBa8RRxU8ndWpH-125">
          <mxGeometry x="0.2632" relative="1" as="geometry">
            <mxPoint as="offset" />
          </mxGeometry>
        </mxCell>
        <mxCell id="MUhubDVM9BwMi47_hHYt-116" value="&lt;font color=&quot;#000000&quot;&gt;Username&lt;br&gt;Password&lt;br&gt;Salt&lt;br&gt;&lt;/font&gt;CellPhone&lt;br&gt;&lt;font color=&quot;#000000&quot;&gt;&lt;br&gt;IsLockedOut = false&lt;br&gt;IsApproved = true&lt;br&gt;IsBackendUser = false&lt;br&gt;FailedLoginAttempts = 0&lt;br&gt;RefreshTokensUsed = 0&lt;br&gt;FraudCount = 0&lt;br&gt;AuthyId = 0&lt;br&gt;IsDenied = false&lt;br&gt;&lt;/font&gt;" style="text;html=1;strokeColor=#0e8088;fillColor=#b0e3e6;align=left;verticalAlign=middle;whiteSpace=wrap;rounded=0;" vertex="1" parent="1">
          <mxGeometry x="184" y="-1370" width="169" height="195" as="geometry" />
        </mxCell>
        <mxCell id="MUhubDVM9BwMi47_hHYt-117" value="" style="endArrow=none;dashed=1;html=1;rounded=0;exitX=0;exitY=0.5;exitDx=0;exitDy=0;entryX=1;entryY=0.5;entryDx=0;entryDy=0;entryPerimeter=0;" edge="1" parent="1" source="MUhubDVM9BwMi47_hHYt-116" target="MLKeYVqBa8RRxU8ndWpH-114">
          <mxGeometry width="50" height="50" relative="1" as="geometry">
            <mxPoint x="511" y="-536" as="sourcePoint" />
            <mxPoint x="561" y="-573" as="targetPoint" />
          </mxGeometry>
        </mxCell>
        <mxCell id="MUhubDVM9BwMi47_hHYt-118" value="" style="endArrow=classic;html=1;rounded=0;exitX=0;exitY=0.85;exitDx=0;exitDy=0;exitPerimeter=0;" edge="1" parent="1" source="MLKeYVqBa8RRxU8ndWpH-114">
          <mxGeometry width="50" height="50" relative="1" as="geometry">
            <mxPoint x="18" y="-1249" as="sourcePoint" />
            <mxPoint x="-218" y="-1104" as="targetPoint" />
          </mxGeometry>
        </mxCell>
        <mxCell id="MUhubDVM9BwMi47_hHYt-119" value="IntermexId" style="edgeLabel;html=1;align=center;verticalAlign=middle;resizable=0;points=[];" vertex="1" connectable="0" parent="MUhubDVM9BwMi47_hHYt-118">
          <mxGeometry x="0.4222" y="1" relative="1" as="geometry">
            <mxPoint x="22" y="-9" as="offset" />
          </mxGeometry>
        </mxCell>
        <mxCell id="MUhubDVM9BwMi47_hHYt-120" value="WebAgentUserId = IntermexId&lt;br&gt;UserName&lt;br&gt;Password&lt;br&gt;Phone&lt;br&gt;PartnerId&lt;br&gt;ChannelId" style="text;html=1;strokeColor=#0e8088;fillColor=#b0e3e6;align=left;verticalAlign=middle;whiteSpace=wrap;rounded=0;" vertex="1" parent="1">
          <mxGeometry x="-123" y="-1025" width="181" height="101" as="geometry" />
        </mxCell>
        <mxCell id="MUhubDVM9BwMi47_hHYt-121" value="Id&lt;br&gt;Email&lt;br&gt;NormalizedEmail&lt;br&gt;NormalizedUserName&lt;br&gt;UserName&lt;br&gt;PhoneNumber&lt;br&gt;SecurityStamp&lt;br&gt;PasswordHash&lt;br&gt;PartnerId&lt;br&gt;&lt;br&gt;EmailConfirmed = true&lt;br&gt;PhoneNumberConfirmed = false&lt;br&gt;TwoFactorEnabled = false&lt;br&gt;LockoutEnabled = false&lt;br&gt;AccessFailedCount = 0" style="text;html=1;strokeColor=#0e8088;fillColor=#b0e3e6;align=left;verticalAlign=middle;whiteSpace=wrap;rounded=0;" vertex="1" parent="1">
          <mxGeometry x="270" y="-1157" width="190" height="231" as="geometry" />
        </mxCell>
        <mxCell id="MUhubDVM9BwMi47_hHYt-122" value="" style="endArrow=none;dashed=1;html=1;rounded=0;exitX=0.5;exitY=1;exitDx=0;exitDy=0;" edge="1" parent="1" source="MUhubDVM9BwMi47_hHYt-120">
          <mxGeometry width="50" height="50" relative="1" as="geometry">
            <mxPoint x="196" y="-1180" as="sourcePoint" />
            <mxPoint x="-63" y="-878" as="targetPoint" />
          </mxGeometry>
        </mxCell>
        <mxCell id="MUhubDVM9BwMi47_hHYt-123" value="" style="endArrow=none;dashed=1;html=1;rounded=0;exitX=0;exitY=0.5;exitDx=0;exitDy=0;" edge="1" parent="1" source="MUhubDVM9BwMi47_hHYt-121">
          <mxGeometry width="50" height="50" relative="1" as="geometry">
            <mxPoint x="194" y="-1262" as="sourcePoint" />
            <mxPoint x="223" y="-877" as="targetPoint" />
          </mxGeometry>
        </mxCell>
        <mxCell id="MUhubDVM9BwMi47_hHYt-124" value="&lt;font color=&quot;#000000&quot;&gt;Handler&lt;br&gt;CompleteRegistrationV2CommandHandler&lt;br&gt;&lt;/font&gt;" style="rounded=0;whiteSpace=wrap;html=1;fillColor=#dae8fc;strokeColor=#6c8ebf;" vertex="1" parent="1">
          <mxGeometry x="-331" y="-1376" width="250" height="60" as="geometry" />
        </mxCell>
        <mxCell id="MUhubDVM9BwMi47_hHYt-125" value="" style="html=1;points=[];perimeter=orthogonalPerimeter;outlineConnect=0;targetShapes=umlLifeline;portConstraint=eastwest;newEdgeStyle={&quot;edgeStyle&quot;:&quot;elbowEdgeStyle&quot;,&quot;elbow&quot;:&quot;vertical&quot;,&quot;curved&quot;:0,&quot;rounded&quot;:0};" vertex="1" parent="1">
          <mxGeometry x="-233" y="-1314" width="10" height="1339" as="geometry" />
        </mxCell>
        <mxCell id="MUhubDVM9BwMi47_hHYt-126" value="- Del Mapper con InitModel:&lt;br&gt;ChannelId ?? 0&lt;br&gt;SenderId ?? 0&lt;br&gt;SndFirstName&lt;br&gt;SndLastName1&lt;br&gt;SndLastName2&lt;br&gt;SndNoSecLastName&lt;br&gt;SndAddress&lt;br&gt;SndCountry&lt;br&gt;SndState&lt;br&gt;SndCity&lt;br&gt;SndZipCode&lt;br&gt;SndCellPhone&lt;br&gt;FacebookId&lt;br&gt;RegistrationIPAddress&lt;br&gt;LoyaltyCardNumber&lt;br&gt;SndLanguageId&lt;br&gt;AuthyId&lt;br&gt;TermsAndConditions&lt;br&gt;&lt;br&gt;-&lt;br&gt;WebAgentUserId&lt;br&gt;SndAdditionalPhone = &#39;&#39;&lt;br&gt;SndEmail&lt;br&gt;UserPassword ( hashed )&lt;br&gt;Salt&lt;br&gt;SndCitizenship = &#39;&#39;&lt;br&gt;SndDOB = null&lt;br&gt;OptStatus = null&lt;br&gt;RegValid_RequestId = null&lt;br&gt;RegDataValidResult = 1&lt;br&gt;SndNoSecLastName&lt;br&gt;SndLastName2" style="text;html=1;strokeColor=#0e8088;fillColor=#b0e3e6;align=left;verticalAlign=middle;whiteSpace=wrap;rounded=0;" vertex="1" parent="1">
          <mxGeometry x="-198" y="-855" width="181" height="490" as="geometry" />
        </mxCell>
        <mxCell id="MUhubDVM9BwMi47_hHYt-127" value="" style="endArrow=classic;html=1;rounded=0;entryX=0;entryY=0.5;entryDx=0;entryDy=0;entryPerimeter=0;" edge="1" parent="1" target="MLKeYVqBa8RRxU8ndWpH-120">
          <mxGeometry width="50" height="50" relative="1" as="geometry">
            <mxPoint x="-214" y="-311" as="sourcePoint" />
            <mxPoint x="-13" y="-311.5" as="targetPoint" />
          </mxGeometry>
        </mxCell>
        <mxCell id="MUhubDVM9BwMi47_hHYt-128" value="3" style="edgeLabel;html=1;align=center;verticalAlign=middle;resizable=0;points=[];" vertex="1" connectable="0" parent="MUhubDVM9BwMi47_hHYt-127">
          <mxGeometry x="0.2632" relative="1" as="geometry">
            <mxPoint as="offset" />
          </mxGeometry>
        </mxCell>
        <mxCell id="MUhubDVM9BwMi47_hHYt-130" value="" style="endArrow=none;dashed=1;html=1;rounded=0;exitX=0.5;exitY=1;exitDx=0;exitDy=0;" edge="1" parent="1" source="MUhubDVM9BwMi47_hHYt-126">
          <mxGeometry width="50" height="50" relative="1" as="geometry">
            <mxPoint x="-22" y="-914" as="sourcePoint" />
            <mxPoint x="-116" y="-312" as="targetPoint" />
          </mxGeometry>
        </mxCell>
        <mxCell id="MUhubDVM9BwMi47_hHYt-131" value="&lt;br&gt;WireSecurity&lt;br&gt;WebAgent_Users" style="strokeWidth=2;html=1;shape=mxgraph.flowchart.database;whiteSpace=wrap;fillColor=#ffe6cc;strokeColor=#d79b00;" vertex="1" parent="1">
          <mxGeometry x="529" y="-498" width="158" height="92" as="geometry" />
        </mxCell>
        <mxCell id="MUhubDVM9BwMi47_hHYt-132" value="" style="endArrow=classic;html=1;rounded=0;exitX=1;exitY=0.5;exitDx=0;exitDy=0;exitPerimeter=0;entryX=0;entryY=0.5;entryDx=0;entryDy=0;entryPerimeter=0;" edge="1" parent="1" source="MLKeYVqBa8RRxU8ndWpH-120" target="MUhubDVM9BwMi47_hHYt-131">
          <mxGeometry width="50" height="50" relative="1" as="geometry">
            <mxPoint x="224" y="-462" as="sourcePoint" />
            <mxPoint x="779" y="-710" as="targetPoint" />
          </mxGeometry>
        </mxCell>
        <mxCell id="MUhubDVM9BwMi47_hHYt-144" value="Insert" style="edgeLabel;html=1;align=center;verticalAlign=middle;resizable=0;points=[];" vertex="1" connectable="0" parent="MUhubDVM9BwMi47_hHYt-132">
          <mxGeometry x="-0.2274" y="-4" relative="1" as="geometry">
            <mxPoint x="41" y="-23" as="offset" />
          </mxGeometry>
        </mxCell>
        <mxCell id="MUhubDVM9BwMi47_hHYt-145" value="1" style="edgeLabel;html=1;align=center;verticalAlign=middle;resizable=0;points=[];" vertex="1" connectable="0" parent="MUhubDVM9BwMi47_hHYt-132">
          <mxGeometry x="-0.2994" y="-1" relative="1" as="geometry">
            <mxPoint as="offset" />
          </mxGeometry>
        </mxCell>
        <mxCell id="MUhubDVM9BwMi47_hHYt-134" value="&lt;br&gt;&lt;br&gt;WireTransac&lt;br&gt;SP&lt;br&gt;Senders_Create_CRM_Fase2" style="strokeWidth=2;html=1;shape=mxgraph.flowchart.database;whiteSpace=wrap;fillColor=#d5e8d4;strokeColor=#82b366;" vertex="1" parent="1">
          <mxGeometry x="515" y="-361" width="192" height="92" as="geometry" />
        </mxCell>
        <mxCell id="MUhubDVM9BwMi47_hHYt-135" value="" style="endArrow=classic;html=1;rounded=0;exitX=1;exitY=0.5;exitDx=0;exitDy=0;exitPerimeter=0;entryX=0;entryY=0.5;entryDx=0;entryDy=0;entryPerimeter=0;" edge="1" parent="1" source="MLKeYVqBa8RRxU8ndWpH-120" target="MUhubDVM9BwMi47_hHYt-134">
          <mxGeometry width="50" height="50" relative="1" as="geometry">
            <mxPoint x="406" y="-301" as="sourcePoint" />
            <mxPoint x="539" y="-442" as="targetPoint" />
          </mxGeometry>
        </mxCell>
        <mxCell id="MUhubDVM9BwMi47_hHYt-146" value="2" style="edgeLabel;html=1;align=center;verticalAlign=middle;resizable=0;points=[];" vertex="1" connectable="0" parent="MUhubDVM9BwMi47_hHYt-135">
          <mxGeometry x="-0.3066" relative="1" as="geometry">
            <mxPoint x="1" as="offset" />
          </mxGeometry>
        </mxCell>
        <mxCell id="MUhubDVM9BwMi47_hHYt-136" value="&lt;br&gt;WireTransac&lt;br&gt;Comp_SndGroups" style="strokeWidth=2;html=1;shape=mxgraph.flowchart.database;whiteSpace=wrap;fillColor=#ffe6cc;strokeColor=#d79b00;" vertex="1" parent="1">
          <mxGeometry x="789" y="-477" width="158" height="92" as="geometry" />
        </mxCell>
        <mxCell id="MUhubDVM9BwMi47_hHYt-137" value="" style="endArrow=classic;html=1;rounded=0;exitX=1;exitY=0.5;exitDx=0;exitDy=0;exitPerimeter=0;entryX=0;entryY=0.5;entryDx=0;entryDy=0;entryPerimeter=0;" edge="1" parent="1" source="MUhubDVM9BwMi47_hHYt-134" target="MUhubDVM9BwMi47_hHYt-136">
          <mxGeometry width="50" height="50" relative="1" as="geometry">
            <mxPoint x="483" y="-395" as="sourcePoint" />
            <mxPoint x="616" y="-536" as="targetPoint" />
          </mxGeometry>
        </mxCell>
        <mxCell id="MUhubDVM9BwMi47_hHYt-138" value="&lt;br&gt;WireTransac&lt;br&gt;Senders" style="strokeWidth=2;html=1;shape=mxgraph.flowchart.database;whiteSpace=wrap;fillColor=#ffe6cc;strokeColor=#d79b00;" vertex="1" parent="1">
          <mxGeometry x="789" y="-361" width="158" height="92" as="geometry" />
        </mxCell>
        <mxCell id="MUhubDVM9BwMi47_hHYt-139" value="" style="endArrow=classic;html=1;rounded=0;exitX=1;exitY=0.5;exitDx=0;exitDy=0;exitPerimeter=0;entryX=0;entryY=0.5;entryDx=0;entryDy=0;entryPerimeter=0;" edge="1" parent="1" source="MUhubDVM9BwMi47_hHYt-134" target="MUhubDVM9BwMi47_hHYt-138">
          <mxGeometry width="50" height="50" relative="1" as="geometry">
            <mxPoint x="717" y="-305" as="sourcePoint" />
            <mxPoint x="795" y="-420" as="targetPoint" />
          </mxGeometry>
        </mxCell>
        <mxCell id="MUhubDVM9BwMi47_hHYt-140" value="&lt;br&gt;WireTransac&lt;br&gt;SenderVersions" style="strokeWidth=2;html=1;shape=mxgraph.flowchart.database;whiteSpace=wrap;fillColor=#ffe6cc;strokeColor=#d79b00;" vertex="1" parent="1">
          <mxGeometry x="789" y="-246" width="158" height="92" as="geometry" />
        </mxCell>
        <mxCell id="MUhubDVM9BwMi47_hHYt-141" value="" style="endArrow=classic;html=1;rounded=0;exitX=1;exitY=0.5;exitDx=0;exitDy=0;exitPerimeter=0;entryX=0;entryY=0.5;entryDx=0;entryDy=0;entryPerimeter=0;" edge="1" parent="1" source="MUhubDVM9BwMi47_hHYt-134" target="MUhubDVM9BwMi47_hHYt-140">
          <mxGeometry width="50" height="50" relative="1" as="geometry">
            <mxPoint x="717" y="-305" as="sourcePoint" />
            <mxPoint x="793" y="-255" as="targetPoint" />
          </mxGeometry>
        </mxCell>
        <mxCell id="MUhubDVM9BwMi47_hHYt-142" value="WebAgentUserId = WebAgentUserId&lt;br&gt;WebAgentUserName = SndEmail&lt;br&gt;RegFirstName = SndFirstName&lt;br&gt;RegLastName1 = SndLastName1&lt;br style=&quot;border-color: var(--border-color);&quot;&gt;RegLastName2 = SndLastName2&lt;br&gt;WebAgentUserCellPhone = SndCellPhone&lt;br&gt;WebAgentyUserLanguageId = SndLanguageId&lt;br style=&quot;border-color: var(--border-color);&quot;&gt;RegistrationIPAddress = RegistrationIPAddress&lt;br&gt;RegistrationState = SndState&lt;br&gt;Created = GetDate()&lt;br&gt;SenderId = 0&lt;br&gt;AuthyId&lt;br&gt;StsRegDataValidResult&lt;br&gt;PartnerId&lt;br&gt;ChannelId&lt;br&gt;UserPassword&lt;br&gt;Salt&lt;br&gt;FacebookId&lt;br&gt;TermsAndConditions&lt;br&gt;TermsAndConditionsAcceptedOn&lt;br&gt;" style="text;html=1;strokeColor=#0e8088;fillColor=#b0e3e6;align=left;verticalAlign=middle;whiteSpace=wrap;rounded=0;" vertex="1" parent="1">
          <mxGeometry x="193" y="-754" width="270" height="303" as="geometry" />
        </mxCell>
        <mxCell id="MUhubDVM9BwMi47_hHYt-143" value="" style="endArrow=none;dashed=1;html=1;rounded=0;exitX=0.5;exitY=1;exitDx=0;exitDy=0;" edge="1" parent="1" source="MUhubDVM9BwMi47_hHYt-142">
          <mxGeometry width="50" height="50" relative="1" as="geometry">
            <mxPoint x="-97" y="-355" as="sourcePoint" />
            <mxPoint x="470" y="-393" as="targetPoint" />
          </mxGeometry>
        </mxCell>
        <mxCell id="MUhubDVM9BwMi47_hHYt-147" value="&lt;br&gt;WireSecurity&lt;br&gt;WebAgent_Users" style="strokeWidth=2;html=1;shape=mxgraph.flowchart.database;whiteSpace=wrap;fillColor=#ffe6cc;strokeColor=#d79b00;" vertex="1" parent="1">
          <mxGeometry x="532" y="-213" width="158" height="92" as="geometry" />
        </mxCell>
        <mxCell id="MUhubDVM9BwMi47_hHYt-148" value="" style="endArrow=classic;html=1;rounded=0;exitX=1;exitY=0.5;exitDx=0;exitDy=0;exitPerimeter=0;entryX=0;entryY=0.5;entryDx=0;entryDy=0;entryPerimeter=0;" edge="1" parent="1" source="MLKeYVqBa8RRxU8ndWpH-120" target="MUhubDVM9BwMi47_hHYt-147">
          <mxGeometry width="50" height="50" relative="1" as="geometry">
            <mxPoint x="406" y="-301" as="sourcePoint" />
            <mxPoint x="539" y="-442" as="targetPoint" />
          </mxGeometry>
        </mxCell>
        <mxCell id="MUhubDVM9BwMi47_hHYt-149" value="Update&lt;br&gt;SenderId" style="edgeLabel;html=1;align=center;verticalAlign=middle;resizable=0;points=[];" vertex="1" connectable="0" parent="MUhubDVM9BwMi47_hHYt-148">
          <mxGeometry x="-0.2274" y="-4" relative="1" as="geometry">
            <mxPoint x="2" y="36" as="offset" />
          </mxGeometry>
        </mxCell>
        <mxCell id="MUhubDVM9BwMi47_hHYt-150" value="3" style="edgeLabel;html=1;align=center;verticalAlign=middle;resizable=0;points=[];" vertex="1" connectable="0" parent="MUhubDVM9BwMi47_hHYt-148">
          <mxGeometry x="-0.2994" y="-1" relative="1" as="geometry">
            <mxPoint as="offset" />
          </mxGeometry>
        </mxCell>
        <mxCell id="MUhubDVM9BwMi47_hHYt-151" value="&lt;font color=&quot;#000000&quot;&gt;Verify Corrupt State and Fix&lt;br&gt;&lt;/font&gt;" style="rounded=0;whiteSpace=wrap;html=1;fillColor=#f5f5f5;strokeColor=#666666;fontColor=#333333;" vertex="1" parent="1">
          <mxGeometry x="-134" y="-1287" width="187" height="60" as="geometry" />
        </mxCell>
        <mxCell id="MUhubDVM9BwMi47_hHYt-152" value="" style="endArrow=classic;html=1;rounded=0;entryX=0;entryY=0.5;entryDx=0;entryDy=0;" edge="1" parent="1" target="MUhubDVM9BwMi47_hHYt-151">
          <mxGeometry width="50" height="50" relative="1" as="geometry">
            <mxPoint x="-214" y="-1257" as="sourcePoint" />
            <mxPoint x="-139" y="-1257.5" as="targetPoint" />
          </mxGeometry>
        </mxCell>
        <mxCell id="MUhubDVM9BwMi47_hHYt-154" value="" style="endArrow=classic;html=1;rounded=0;entryX=0;entryY=0.5;entryDx=0;entryDy=0;entryPerimeter=0;" edge="1" parent="1" target="MLKeYVqBa8RRxU8ndWpH-121">
          <mxGeometry width="50" height="50" relative="1" as="geometry">
            <mxPoint x="-217" y="-158" as="sourcePoint" />
            <mxPoint x="9" y="-301" as="targetPoint" />
          </mxGeometry>
        </mxCell>
        <mxCell id="MUhubDVM9BwMi47_hHYt-156" value="" style="endArrow=classic;html=1;rounded=0;entryX=0;entryY=0.5;entryDx=0;entryDy=0;entryPerimeter=0;" edge="1" parent="1" target="MLKeYVqBa8RRxU8ndWpH-122">
          <mxGeometry width="50" height="50" relative="1" as="geometry">
            <mxPoint x="-217" y="-33" as="sourcePoint" />
            <mxPoint x="-76" y="-148" as="targetPoint" />
          </mxGeometry>
        </mxCell>
      </root>
    </mxGraphModel>
  </diagram>
</mxfile>
